# xmcd CD database file
# Copyright (C) 1993-1998 Ti Kan
#
# Track frame offsets:
#	150
#	12615
#	24510
#	37332
#	54007
#	65642
#	81745
#	98757
#	116682
#	142097
#	164402
#
# Disc length: 2342 seconds
#
# Revision: 1
# Processed by: cddbd v1.4b41PL1 Copyright (c) Steve Scherf et al.
# Submitted via: NotifyCDPlayer(CDDB) 1.51.3
#
DISCID=9e09240b
DTITLE=The Roosters - The Roosters
DYEAR=1900
DGENRE=
TTITLE0=Call Me Up
TTITLE1=What Is It This Time?
TTITLE2=Come On In My Kitchen
TTITLE3=Treat Me So Low Down
TTITLE4=Strolin With Bone
TTITLE5=She's Gone
TTITLE6=Last Time
TTITLE7=Kiss Me
TTITLE8=Mama Don't Treat Your Daughter Mean
TTITLE9=Little Red Rooster
TTITLE10=Dancin
EXTD=
EXTT0=
EXTT1=
EXTT2=
EXTT3=
EXTT4=
EXTT5=
EXTT6=
EXTT7=
EXTT8=
EXTT9=
EXTT10=
PLAYORDER=
